<svg id="svg" xmlns="http://www.w3.org/2000/svg" xmlns:xlink="http://www.w3.org/1999/xlink" width="400" height="385.00000000000006" viewBox="0, 0, 400,385.00000000000006" version="1.1"><g id="svgg"><path id="path0" d="M235.645 27.978 C 235.010 28.070,233.796 28.305,232.948 28.502 C 232.100 28.698,230.106 29.142,228.516 29.487 C 226.927 29.832,224.586 30.342,223.314 30.619 C 222.042 30.896,220.048 31.313,218.882 31.546 C 217.717 31.779,215.462 32.249,213.873 32.590 C 211.998 32.992,209.016 33.216,205.385 33.226 C 199.950 33.242,197.974 32.991,190.944 31.388 C 176.318 28.055,167.767 27.330,165.032 29.191 C 155.700 35.537,152.711 40.576,149.096 56.050 C 146.059 69.049,145.540 71.320,144.514 76.108 C 144.107 78.006,143.373 81.125,141.770 87.773 C 140.712 92.156,140.421 92.908,139.728 93.037 C 136.501 93.641,133.590 94.027,132.272 94.027 C 130.371 94.027,123.335 95.245,117.726 96.544 C 103.341 99.876,91.499 103.499,84.971 106.564 C 65.344 115.781,71.730 128.528,100.193 136.948 C 104.217 138.138,111.533 140.006,114.644 140.638 C 115.915 140.896,118.083 141.338,119.461 141.619 C 124.581 142.666,130.984 143.745,137.572 144.671 C 168.722 149.053,210.389 150.186,244.316 147.575 C 253.274 146.885,262.497 146.050,265.703 145.637 C 275.688 144.352,284.204 142.997,290.944 141.619 C 292.322 141.338,294.489 140.898,295.761 140.642 C 333.683 133.015,348.114 118.120,327.645 107.733 C 320.830 104.275,314.438 101.655,310.597 100.746 C 309.220 100.420,307.052 99.909,305.780 99.611 C 304.509 99.313,301.647 98.638,299.422 98.111 C 291.877 96.325,289.100 95.781,281.696 94.640 C 278.684 94.176,273.076 93.414,270.541 93.125 C 270.025 93.066,268.095 86.278,267.072 80.925 C 266.889 79.971,266.479 78.064,266.160 76.686 C 265.841 75.308,265.285 72.881,264.925 71.291 C 264.565 69.701,264.131 67.794,263.962 67.052 C 263.792 66.310,263.359 64.316,263.001 62.620 C 261.005 53.192,260.656 51.745,259.338 47.423 C 255.438 34.631,245.587 26.546,235.645 27.978 M126.089 148.439 C 124.755 149.773,126.664 186.399,128.877 201.927 C 130.611 214.098,132.392 224.134,133.593 228.516 C 135.823 236.646,138.112 240.220,146.434 248.566 C 153.906 256.059,167.863 269.415,170.142 271.254 C 170.774 271.764,172.331 273.068,173.603 274.153 C 183.294 282.420,189.928 284.906,203.573 285.384 C 216.425 285.833,222.953 283.932,230.576 277.520 C 231.669 276.601,233.422 275.127,234.473 274.245 C 240.534 269.154,259.034 249.989,262.351 245.366 C 268.816 236.354,270.116 231.671,271.465 212.524 C 272.304 200.620,273.553 172.621,273.877 158.428 L 274.092 149.033 271.824 149.234 C 270.577 149.344,268.083 149.633,266.281 149.875 C 253.063 151.653,248.821 151.953,222.158 152.992 C 209.070 153.502,179.289 153.290,172.832 152.641 C 170.713 152.427,165.511 151.980,161.272 151.647 C 153.867 151.064,151.042 150.767,144.316 149.861 C 142.620 149.633,139.846 149.295,138.150 149.111 C 136.455 148.926,133.507 148.599,131.599 148.383 C 127.134 147.878,126.645 147.883,126.089 148.439 M112.495 247.552 C 112.311 247.739,107.269 248.673,102.312 249.436 C 95.627 250.467,80.799 255.962,72.090 260.638 C 62.322 265.882,57.330 269.787,50.169 277.784 C 40.547 288.529,38.088 299.397,42.307 312.524 C 42.955 314.538,43.609 316.616,43.762 317.143 C 43.915 317.669,44.739 319.056,45.592 320.225 C 53.340 330.834,61.901 335.182,78.271 336.824 C 87.717 337.772,104.180 335.401,113.102 331.807 C 113.526 331.636,115.087 331.016,116.570 330.429 C 128.386 325.751,135.079 321.679,146.072 312.482 C 150.970 308.384,153.859 306.640,155.176 306.985 C 156.185 307.249,156.328 307.582,156.858 310.899 C 157.524 315.073,159.253 316.695,165.511 319.020 C 168.276 320.047,170.062 320.487,176.686 321.770 C 177.746 321.975,179.566 322.334,180.732 322.566 C 181.898 322.798,183.805 323.139,184.971 323.323 C 186.137 323.507,188.565 323.936,190.366 324.277 C 192.168 324.619,194.595 325.055,195.761 325.247 C 196.927 325.440,199.311 325.864,201.060 326.190 C 202.808 326.516,205.670 327.049,207.418 327.375 C 209.167 327.701,211.551 328.125,212.717 328.317 C 213.882 328.510,216.310 328.946,218.112 329.287 C 219.913 329.628,222.341 330.065,223.507 330.258 C 224.672 330.450,227.013 330.872,228.709 331.196 C 249.821 335.220,263.934 333.331,271.195 325.509 C 272.095 324.539,272.832 323.647,272.832 323.527 C 272.832 323.408,273.273 322.401,273.812 321.289 C 274.660 319.540,274.797 318.720,274.832 315.207 C 274.940 304.297,270.967 300.153,258.574 298.253 C 256.696 297.965,254.267 297.577,246.628 296.344 C 245.462 296.156,242.775 295.724,240.655 295.385 C 238.536 295.046,235.241 294.509,233.333 294.193 C 231.426 293.877,228.825 293.458,227.553 293.262 C 226.281 293.066,223.593 292.630,221.580 292.293 C 219.566 291.955,216.879 291.531,215.607 291.350 C 214.335 291.170,212.081 290.828,210.597 290.591 C 209.114 290.354,206.686 289.980,205.202 289.760 C 203.719 289.541,201.031 289.122,199.229 288.830 C 192.533 287.745,187.314 287.296,181.503 287.303 L 175.530 287.310 170.968 289.320 C 162.777 292.928,160.706 292.227,161.467 286.102 C 163.556 269.294,152.745 253.471,136.609 249.720 C 135.549 249.473,133.988 249.105,133.141 248.900 C 129.549 248.035,113.076 246.959,112.495 247.552 M127.746 257.823 C 134.958 258.591,140.258 260.066,143.827 262.299 C 144.617 262.794,145.444 263.198,145.664 263.198 C 147.004 263.198,151.060 268.226,151.060 269.887 C 151.060 274.158,149.639 275.633,148.786 272.247 C 148.301 270.321,147.201 268.979,146.109 268.979 C 145.319 268.979,138.640 275.791,130.050 285.356 C 128.147 287.475,125.705 290.163,124.623 291.329 C 123.542 292.495,121.982 294.229,121.156 295.183 C 109.046 309.169,105.528 311.324,89.981 314.279 C 82.909 315.622,68.765 315.954,65.240 314.859 C 64.647 314.675,62.861 314.227,61.272 313.864 C 54.889 312.404,49.550 308.553,48.561 304.694 C 47.596 300.931,50.898 292.589,55.640 286.808 C 62.044 279.000,68.735 273.287,75.030 270.249 C 77.530 269.043,80.532 267.516,81.700 266.856 C 83.887 265.621,87.021 264.397,93.064 262.418 C 101.556 259.637,101.804 259.577,112.139 257.784 C 116.105 257.096,121.030 257.108,127.746 257.823 M86.320 267.283 C 78.451 269.843,74.004 272.136,66.859 277.320 C 61.200 281.427,59.492 283.150,55.491 288.788 C 51.222 294.805,49.691 300.359,51.031 304.969 C 52.672 310.613,53.968 309.950,64.126 298.264 C 64.954 297.311,67.902 294.112,70.677 291.155 C 87.128 273.625,92.100 267.999,92.100 266.916 C 92.100 265.994,89.842 266.138,86.320 267.283 " stroke="none" fill="#053c05" fill-rule="evenodd"></path><path id="path1" d="M0.000 192.678 L 0.000 385.356 200.000 385.356 L 400.000 385.356 400.000 192.678 L 400.000 0.000 200.000 0.000 L 0.000 0.000 0.000 192.678 M244.751 29.035 C 250.906 31.818,256.874 39.341,259.338 47.423 C 260.656 51.745,261.005 53.192,263.001 62.620 C 263.359 64.316,263.792 66.310,263.962 67.052 C 264.131 67.794,264.565 69.701,264.925 71.291 C 265.285 72.881,265.841 75.308,266.160 76.686 C 266.479 78.064,266.889 79.971,267.072 80.925 C 268.095 86.278,270.025 93.066,270.541 93.125 C 273.076 93.414,278.684 94.176,281.696 94.640 C 289.100 95.781,291.877 96.325,299.422 98.111 C 301.647 98.638,304.509 99.313,305.780 99.611 C 307.052 99.909,309.220 100.420,310.597 100.746 C 314.438 101.655,320.830 104.275,327.645 107.733 C 348.114 118.120,333.683 133.015,295.761 140.642 C 294.489 140.898,292.322 141.338,290.944 141.619 C 254.158 149.137,203.844 150.970,154.335 146.598 C 142.617 145.563,129.822 143.737,119.461 141.619 C 118.083 141.338,115.915 140.896,114.644 140.638 C 111.533 140.006,104.217 138.138,100.193 136.948 C 71.730 128.528,65.344 115.781,84.971 106.564 C 91.499 103.499,103.341 99.876,117.726 96.544 C 123.335 95.245,130.371 94.027,132.272 94.027 C 133.590 94.027,136.501 93.641,139.728 93.037 C 140.421 92.908,140.712 92.156,141.770 87.773 C 143.373 81.125,144.107 78.006,144.514 76.108 C 145.540 71.320,146.059 69.049,149.096 56.050 C 152.711 40.576,155.700 35.537,165.032 29.191 C 167.767 27.330,176.318 28.055,190.944 31.388 C 197.974 32.991,199.950 33.242,205.385 33.226 C 209.016 33.216,211.998 32.992,213.873 32.590 C 215.462 32.249,217.717 31.779,218.882 31.546 C 220.048 31.313,222.042 30.896,223.314 30.619 C 224.586 30.342,226.927 29.832,228.516 29.487 C 230.106 29.142,232.100 28.698,232.948 28.502 C 237.257 27.503,241.819 27.710,244.751 29.035 M131.599 148.383 C 133.507 148.599,136.455 148.926,138.150 149.111 C 139.846 149.295,142.620 149.633,144.316 149.861 C 151.042 150.767,153.867 151.064,161.272 151.647 C 165.511 151.980,170.713 152.427,172.832 152.641 C 179.289 153.290,209.070 153.502,222.158 152.992 C 248.821 151.953,253.063 151.653,266.281 149.875 C 268.083 149.633,270.577 149.344,271.824 149.234 L 274.092 149.033 273.877 158.428 C 273.553 172.621,272.304 200.620,271.465 212.524 C 269.649 238.296,268.267 240.955,244.333 264.740 C 239.961 269.085,235.524 273.362,234.473 274.245 C 233.422 275.127,231.669 276.601,230.576 277.520 C 222.953 283.932,216.425 285.833,203.573 285.384 C 189.928 284.906,183.294 282.420,173.603 274.153 C 172.331 273.068,170.774 271.764,170.142 271.254 C 167.863 269.415,153.906 256.059,146.434 248.566 C 138.112 240.220,135.823 236.646,133.593 228.516 C 132.392 224.134,130.611 214.098,128.877 201.927 C 126.664 186.399,124.755 149.773,126.089 148.439 C 126.645 147.883,127.134 147.878,131.599 148.383 M127.938 248.129 C 129.952 248.349,132.293 248.696,133.141 248.900 C 133.988 249.105,135.549 249.473,136.609 249.720 C 152.745 253.471,163.556 269.294,161.467 286.102 C 160.706 292.227,162.777 292.928,170.968 289.320 L 175.530 287.310 181.503 287.303 C 187.314 287.296,192.533 287.745,199.229 288.830 C 201.031 289.122,203.719 289.541,205.202 289.760 C 206.686 289.980,209.114 290.354,210.597 290.591 C 212.081 290.828,214.335 291.170,215.607 291.350 C 216.879 291.531,219.566 291.955,221.580 292.293 C 223.593 292.630,226.281 293.066,227.553 293.262 C 228.825 293.458,231.426 293.877,233.333 294.193 C 235.241 294.509,238.536 295.046,240.655 295.385 C 242.775 295.724,245.462 296.156,246.628 296.344 C 254.267 297.577,256.696 297.965,258.574 298.253 C 270.967 300.153,274.940 304.297,274.832 315.207 C 274.797 318.720,274.660 319.540,273.812 321.289 C 273.273 322.401,272.832 323.408,272.832 323.527 C 272.832 323.647,272.095 324.539,271.195 325.509 C 263.934 333.331,249.821 335.220,228.709 331.196 C 227.013 330.872,224.672 330.450,223.507 330.258 C 222.341 330.065,219.913 329.628,218.112 329.287 C 216.310 328.946,213.882 328.510,212.717 328.317 C 211.551 328.125,209.167 327.701,207.418 327.375 C 205.670 327.049,202.808 326.516,201.060 326.190 C 199.311 325.864,196.927 325.440,195.761 325.247 C 194.595 325.055,192.168 324.619,190.366 324.277 C 188.565 323.936,186.137 323.507,184.971 323.323 C 183.805 323.139,181.898 322.798,180.732 322.566 C 179.566 322.334,177.746 321.975,176.686 321.770 C 170.062 320.487,168.276 320.047,165.511 319.020 C 159.253 316.695,157.524 315.073,156.858 310.899 C 156.328 307.582,156.185 307.249,155.176 306.985 C 153.859 306.640,150.970 308.384,146.072 312.482 C 135.079 321.679,128.386 325.751,116.570 330.429 C 115.087 331.016,113.526 331.636,113.102 331.807 C 104.180 335.401,87.717 337.772,78.271 336.824 C 61.901 335.182,53.340 330.834,45.592 320.225 C 44.739 319.056,43.915 317.669,43.762 317.143 C 43.609 316.616,42.955 314.538,42.307 312.524 C 39.571 304.012,39.435 298.849,41.764 291.988 C 47.832 274.116,69.007 258.396,97.495 250.615 C 99.509 250.065,101.676 249.534,102.312 249.436 C 107.269 248.673,112.311 247.739,112.495 247.552 C 112.800 247.241,123.454 247.639,127.938 248.129 M115.800 257.321 C 112.141 257.547,102.504 259.429,98.266 260.744 C 89.586 263.438,84.293 265.391,81.700 266.856 C 80.532 267.516,77.530 269.043,75.030 270.249 C 68.735 273.287,62.044 279.000,55.640 286.808 C 50.898 292.589,47.596 300.931,48.561 304.694 C 49.550 308.553,54.889 312.404,61.272 313.864 C 62.861 314.227,64.647 314.675,65.240 314.859 C 68.765 315.954,82.909 315.622,89.981 314.279 C 105.528 311.324,109.046 309.169,121.156 295.183 C 121.982 294.229,123.542 292.495,124.623 291.329 C 125.705 290.163,128.147 287.475,130.050 285.356 C 138.640 275.791,145.319 268.979,146.109 268.979 C 147.201 268.979,148.301 270.321,148.786 272.247 C 149.639 275.633,151.060 274.158,151.060 269.887 C 151.060 268.226,147.004 263.198,145.664 263.198 C 145.444 263.198,144.617 262.794,143.827 262.299 C 138.569 259.009,125.638 256.712,115.800 257.321 M92.100 266.916 C 92.100 267.999,87.128 273.625,70.677 291.155 C 67.902 294.112,64.954 297.311,64.126 298.264 C 53.968 309.950,52.672 310.613,51.031 304.969 C 49.435 299.477,52.002 292.572,58.621 284.559 C 62.644 279.689,74.157 271.712,80.732 269.238 C 88.362 266.368,92.100 265.604,92.100 266.916 " stroke="none" fill="#fbfbfb" fill-rule="evenodd"></path></g></svg>