<svg width="800" height="600" xmlns="http://www.w3.org/2000/svg">

    <g>
        <title>Layer 1</title>
        <g stroke="null">
            <g stroke="null">
                <path stroke="null" d="m529.77334,508.09431c-2.28826,-0.92504 -4.77126,-1.46059 -7.40032,-1.46059c-2.62906,0 -5.11206,0.53555 -7.40032,1.46059c-2.28826,0.97373 -4.38177,2.33694 -6.08579,4.08965l-0.14606,0.09737c-0.97373,0.97373 -1.89877,2.09351 -2.62906,3.31067c-0.38949,0.63292 -0.77898,1.31453 -1.11978,2.04482l-30.72105,0l0,-26.68009c-4.72257,2.19088 -9.63989,3.84622 -14.65458,4.86863c-0.87635,0.19475 -1.70402,0.3408 -2.58037,0.48686l0,29.89339c0,2.38563 0.97373,4.52783 2.53169,6.08579c1.55796,1.55796 3.70016,2.53169 6.08579,2.53169l39.63065,0c0.29212,0.58424 0.63292,1.16847 1.02241,1.75271c0.68161,1.02241 1.46059,1.99614 2.33694,2.87249l0.14606,0.14606c1.75271,1.75271 3.8949,3.2133 6.28053,4.18702c2.28826,0.92504 4.77126,1.46059 7.40032,1.46059c2.53169,0 5.01469,-0.48686 7.25426,-1.4119l0.14606,-0.04869c2.38563,-0.97373 4.47914,-2.43431 6.28053,-4.18702c1.75271,-1.75271 3.2133,-3.8949 4.18702,-6.28053c0.92504,-2.28826 1.46059,-4.77126 1.46059,-7.40032c0,-2.58037 -0.53555,-5.06338 -1.46059,-7.40032c-0.97373,-2.38563 -2.43431,-4.52783 -4.18702,-6.28053c-1.85008,-1.70402 -3.99228,-3.16461 -6.37791,-4.13834l0,0zm-140.45997,-182.57362l-36.02786,0l-5.16075,16.94283l-32.42508,0l38.70561,-102.82546l34.76202,0l38.55955,102.82546l-33.25274,0l-5.16075,-16.94283l0,0zm-6.71871,-22.29833l-11.24654,-36.9529l-11.29522,36.9529l22.54176,0l0,0zm54.09048,-63.63299l31.88953,0l0,102.82546l-31.88953,0l0,-102.82546l0,0zm-24.29446,-105.40584c-5.25812,3.79753 -10.12675,8.90959 -14.36246,15.53093c-0.19475,0.3408 -0.48686,0.63292 -0.82767,0.82767c-1.31453,0.82767 -3.06724,0.43818 -3.8949,-0.82767c-4.23571,-6.62134 -9.10434,-11.7334 -14.36246,-15.53093c-5.64761,-4.08965 -11.7334,-6.67002 -18.01393,-7.93587l-0.09737,0c-6.13447,-1.26584 -12.41501,-1.26584 -18.45211,-0.19475c-6.37791,1.11978 -12.56107,3.45673 -18.1113,6.67002c-5.50155,3.2133 -10.46755,7.35163 -14.60589,12.12289c-3.99228,4.6252 -7.20557,9.93201 -9.29908,15.6283l0,0c-0.3408,0.87635 -0.63292,1.80139 -0.92504,2.77512c-0.24343,0.87635 -0.53555,1.85008 -0.73029,2.82381c-0.24343,1.26584 -1.31453,2.19088 -2.67775,2.23957c-6.52396,0.97373 -12.99924,3.35935 -19.03634,6.91345c-6.13447,3.65147 -11.83077,8.61747 -16.74809,14.5572c-4.86863,5.93973 -8.95828,12.95056 -11.87946,20.74036c-2.72643,7.30294 -4.38177,15.33618 -4.72257,23.85629c-0.04869,1.11978 -0.04869,2.19088 -0.04869,3.31067c0,1.02241 0.04869,2.09351 0.04869,3.2133c0.04869,0.92504 -0.3408,1.89877 -1.16847,2.483c-3.99228,2.87249 -7.59506,5.84236 -10.80836,8.90959c-3.26198,3.16461 -6.13447,6.42659 -8.61747,9.78595c-4.04096,5.50155 -7.01083,11.24654 -9.00697,17.0402c-2.09351,6.0371 -3.11592,12.22026 -3.2133,18.30605c-0.04869,5.84236 0.73029,11.63603 2.38563,17.23495c1.65533,5.6963 4.18702,11.24654 7.449,16.40728l0,0c1.85008,2.96986 3.94359,5.89104 6.23185,8.61747c2.33694,2.77512 4.86863,5.40418 7.59506,7.88718c0.68161,0.63292 1.0711,1.65533 0.87635,2.62906c-0.77898,3.70016 -1.16847,7.35163 -1.31453,10.95442c-0.09737,3.70016 0.09737,7.35163 0.58424,10.90573c0.92504,6.52396 2.82381,12.75581 5.50155,18.50079c2.82381,6.13447 6.52396,11.7334 10.80836,16.65071c4.13834,4.81994 8.86091,9.00697 13.92428,12.46369c5.11206,3.50541 10.51624,6.23185 16.06648,8.13061c2.483,0.82767 5.01469,1.50928 7.59506,1.99614c2.43431,0.48686 4.86863,0.77898 7.25426,0.87635c1.31453,-0.04869 2.53169,0.87635 2.82381,2.23957c1.26584,5.79367 3.60279,11.24654 6.81608,16.16385c3.35935,5.16075 7.59506,9.73726 12.46369,13.53479c6.13447,4.77126 13.34005,8.37404 20.93511,10.27281c7.15689,1.80139 14.70326,2.1422 22.10358,0.58424c6.62134,-1.36322 13.04793,-4.18702 18.98766,-8.66616c5.45287,-4.13834 10.51624,-9.68857 14.75195,-16.89415c0.24343,-0.43818 0.63292,-0.77898 1.11978,-1.02241c1.36322,-0.73029 3.06724,-0.19475 3.79753,1.16847c3.50541,6.52396 7.78981,11.7334 12.56107,15.67699c5.16075,4.23571 10.85704,7.1082 16.84546,8.76353c7.64375,2.09351 15.6283,2.09351 23.36942,0.48686c8.27667,-1.70402 16.26122,-5.30681 23.12599,-10.27281c5.40418,-3.84622 10.17544,-8.56879 13.97297,-13.92428c3.60279,-5.01469 6.28053,-10.61361 7.83849,-16.50466c0.19475,-1.11978 1.0711,-2.09351 2.28826,-2.28826c7.15689,-1.26584 14.2164,-4.23571 20.69168,-8.66616c6.47528,-4.43045 12.36632,-10.27281 17.18626,-17.23495c4.43045,-6.42659 7.98455,-13.82691 10.27281,-21.90883c2.1422,-7.54638 3.16461,-15.72567 2.82381,-24.34315c-0.09737,-0.97373 0.3408,-1.94745 1.21716,-2.53169c4.18702,-2.87249 7.88718,-5.89104 11.19785,-8.95828c3.35935,-3.2133 6.32922,-6.52396 8.86091,-9.98069l0,0c3.8949,-5.25812 6.7674,-10.71099 8.76353,-16.30991c2.04482,-5.79367 3.11592,-11.68471 3.31067,-17.57575c0.14606,-5.6963 -0.53555,-11.34391 -1.99614,-16.89415c-1.46059,-5.59892 -3.74885,-11.0031 -6.71871,-16.11517l-0.09737,-0.09737c-1.94745,-3.35935 -4.23571,-6.57265 -6.7674,-9.68857c-2.53169,-3.11592 -5.40418,-6.0371 -8.47142,-8.81222c-0.73029,-0.63292 -1.11978,-1.65533 -0.92504,-2.67775c0.68161,-3.35935 1.11978,-6.71871 1.26584,-10.02938c0.14606,-3.35935 0.04869,-6.67002 -0.29212,-9.93201c-0.73029,-6.7674 -2.53169,-13.19399 -5.16075,-19.1824c-2.77512,-6.32922 -6.47528,-12.17157 -10.80836,-17.28364c-4.18702,-4.966 -9.00697,-9.29908 -14.16771,-12.90187c-5.16075,-3.60279 -10.6623,-6.42659 -16.26122,-8.32536l-0.14606,-0.04869c-2.96986,-1.02241 -5.98841,-1.75271 -8.95828,-2.23957l-0.09737,0c-2.92118,-0.48686 -5.84236,-0.68161 -8.71485,-0.63292c-1.31453,0.09737 -2.58037,-0.77898 -2.92118,-2.1422c-0.48686,-1.99614 -1.11978,-3.94359 -1.85008,-5.84236c-0.77898,-1.94745 -1.65533,-3.84622 -2.67775,-5.74498c-2.62906,-4.86863 -6.08579,-9.34777 -10.12675,-13.19399c-4.13834,-3.94359 -8.86091,-7.30294 -13.92428,-9.88332c-5.20943,-2.62906 -10.90573,-4.47914 -16.74809,-5.30681c-5.55024,-0.77898 -11.24654,-0.68161 -16.84546,0.48686c-6.28053,1.50928 -12.46369,4.08965 -18.1113,8.1793l0,0zm79.6021,54.82077c0.3408,-1.0711 1.31453,-1.89877 2.53169,-1.99614c2.04482,-0.14606 4.13834,-0.04869 6.23185,0.29212c2.1422,0.3408 4.28439,0.87635 6.42659,1.60665c4.04096,1.36322 8.08193,3.45673 11.83077,6.08579c3.70016,2.58037 7.20557,5.74498 10.22412,9.34777l0.04869,0.09737c3.16461,3.74885 5.84236,7.93587 7.83849,12.51238c1.89877,4.28439 3.16461,8.86091 3.70016,13.68085c0.3408,3.2133 0.3408,6.57265 -0.04869,9.98069c-0.3408,3.16461 -1.0711,6.42659 -2.19088,9.68857l-0.04869,0.19475c-0.68161,2.04482 -0.63292,4.18702 0,6.08579c0.68161,1.94745 1.94745,3.70016 3.74885,4.86863l0.14606,0.09737c3.40804,2.53169 6.42659,5.30681 9.05565,8.22798c2.72643,2.96986 5.06338,6.18316 7.01083,9.49383c2.1422,3.65147 3.79753,7.449 4.81994,11.34391c1.0711,3.84622 1.55796,7.74112 1.4119,11.58734c-0.09737,3.99228 -0.87635,7.98455 -2.28826,11.92814c-1.36322,3.74885 -3.35935,7.449 -5.98841,11.05179l-0.04869,0.04869c-2.38563,3.26198 -5.40418,6.47528 -8.95828,9.54251c-3.40804,2.92118 -7.35163,5.6963 -11.87946,8.37404l-0.14606,0.09737c-1.80139,1.02241 -3.11592,2.58037 -3.8949,4.38177c-0.77898,1.80139 -1.02241,3.79753 -0.63292,5.74498l0.04869,0.38949c0.92504,7.449 0.48686,14.5572 -1.02241,21.03248c-1.65533,7.05951 -4.52783,13.38873 -8.27667,18.79291c-2.87249,4.13834 -6.18316,7.69244 -9.73726,10.51624c-3.65147,2.92118 -7.59506,5.06338 -11.63603,6.37791l-0.04869,0c-1.46059,0.43818 -3.06724,-0.38949 -3.50541,-1.85008c-5.50155,-17.96524 -14.99538,-23.75891 -31.06186,-32.03558l-0.3408,-0.19475c-2.23957,-1.0711 -4.67388,-1.16847 -6.86477,-0.48686c-2.19088,0.68161 -4.08965,2.19088 -5.20943,4.38177l-0.14606,0.29212c-1.0711,2.23957 -1.16847,4.67388 -0.48686,6.86477c0.73029,2.19088 2.28826,4.13834 4.52783,5.30681c13.43742,6.86477 23.36942,12.0742 23.22336,28.91966c-0.04869,5.01469 -1.60665,9.88332 -4.23571,14.26509c-2.77512,4.6252 -6.7674,8.76353 -11.39259,12.12289c-4.72257,3.40804 -10.02938,5.89104 -15.48224,7.1082c-5.20943,1.21716 -10.56493,1.26584 -15.57962,-0.09737c-8.47142,-2.33694 -13.97297,-7.98455 -17.67313,-14.84932c-3.50541,-6.52396 -5.45287,-14.11903 -6.86477,-21.03248c-0.09737,-0.24343 -0.09737,-0.53555 -0.09737,-0.77898c0,-3.50541 -2.72643,-5.79367 -6.28053,-6.81608c-1.55796,-0.48686 -3.26198,-0.68161 -4.91732,-0.68161c-1.70402,0 -3.35935,0.24343 -4.91732,0.68161c-3.50541,1.0711 -6.23185,3.35935 -6.23185,6.81608c0,0.24343 -0.04869,0.43818 -0.09737,0.68161c-2.72643,10.80836 -6.67002,18.93897 -11.29522,24.78133c-5.40418,6.86477 -11.7334,10.61361 -18.25736,11.97683c-4.77126,0.97373 -9.68857,0.73029 -14.36246,-0.48686c-4.91732,-1.31453 -9.5912,-3.70016 -13.68085,-6.81608c-4.04096,-3.16461 -7.40032,-7.01083 -9.73726,-11.34391c-2.23957,-4.13834 -3.5541,-8.71485 -3.5541,-13.38873c0,-17.72181 10.71099,-23.66154 24.8787,-30.9158c2.23957,-1.16847 3.79753,-3.11592 4.52783,-5.30681c0.73029,-2.23957 0.58424,-4.72257 -0.53555,-7.01083c-1.16847,-2.23957 -3.11592,-3.79753 -5.30681,-4.52783c-2.19088,-0.68161 -4.6252,-0.58424 -6.86477,0.48686l-0.14606,0.04869c-16.6994,8.5201 -26.68009,14.75195 -32.66851,33.30143c-0.3408,1.21716 -1.50928,2.1422 -2.82381,2.09351c-1.65533,-0.04869 -3.31067,-0.24343 -5.01469,-0.58424c-1.65533,-0.3408 -3.31067,-0.77898 -4.86863,-1.36322c-3.94359,-1.36322 -7.88718,-3.35935 -11.58734,-5.89104c-3.65147,-2.53169 -7.05951,-5.55024 -10.07806,-9.05565c-3.11592,-3.60279 -5.79367,-7.64375 -7.83849,-12.0742c-1.94745,-4.13834 -3.31067,-8.56879 -3.99228,-13.19399l0,-0.09737c-0.48686,-3.40804 -0.58424,-6.96214 -0.19475,-10.61361c0.3408,-3.40804 1.0711,-6.96214 2.28826,-10.46755l0.04869,-0.14606c0.68161,-1.99614 0.63292,-4.08965 0.04869,-5.93973l-0.04869,-0.09737c-0.63292,-1.94745 -1.89877,-3.65147 -3.65147,-4.86863l-0.09737,-0.09737c-3.11592,-2.33694 -5.93973,-4.81994 -8.42273,-7.54638c-2.53169,-2.72643 -4.77126,-5.64761 -6.62134,-8.66616c-2.23957,-3.65147 -3.99228,-7.54638 -5.16075,-11.53865c-1.11978,-3.8949 -1.70402,-7.88718 -1.65533,-11.97683c0.04869,-4.13834 0.77898,-8.37404 2.23957,-12.51238c1.4119,-3.94359 3.45673,-7.88718 6.28053,-11.7334c2.38563,-3.26198 5.30681,-6.47528 8.81222,-9.54251c3.35935,-2.96986 7.15689,-5.79367 11.53865,-8.47142c1.60665,-0.97373 2.77512,-2.33694 3.5541,-3.8949l0.04869,-0.14606c0.77898,-1.60665 1.0711,-3.40804 0.82767,-5.20943c-0.04869,-0.19475 -0.04869,-0.38949 -0.04869,-0.58424l0,-0.09737c-0.24343,-1.70402 -0.38949,-3.40804 -0.48686,-5.06338c-0.09737,-1.80139 -0.09737,-3.60279 -0.04869,-5.35549c0.24343,-6.37791 1.46059,-12.36632 3.45673,-17.7705c2.1422,-5.79367 5.16075,-11.0031 8.76353,-15.43356c2.96986,-3.65147 6.37791,-6.71871 9.93201,-9.10434c3.5541,-2.38563 7.30294,-4.08965 11.14916,-5.06338l0,0c1.46059,-0.43818 3.06724,0.38949 3.50541,1.85008c3.01855,9.54251 6.81608,15.53093 14.07034,22.29833l0.29212,0.24343c1.80139,1.65533 4.13834,2.43431 6.42659,2.33694c2.28826,-0.09737 4.52783,-1.02241 6.18316,-2.82381l0.14606,-0.19475c1.65533,-1.80139 2.43431,-4.13834 2.33694,-6.42659c-0.09737,-2.28826 -1.0711,-4.57651 -2.92118,-6.32922c-5.84236,-5.40418 -7.15689,-8.76353 -8.90959,-14.2164c-2.04482,-6.28053 -1.70402,-12.41501 0.29212,-17.86787c1.36322,-3.74885 3.50541,-7.25426 6.23185,-10.3215c2.67775,-3.06724 5.93973,-5.79367 9.54251,-7.88718l0.14606,-0.09737c3.70016,-2.1422 7.69244,-3.70016 11.83077,-4.47914c3.94359,-0.73029 7.98455,-0.77898 11.92814,0.04869c5.55024,1.16847 11.0031,4.08965 15.82305,9.15302c4.23571,4.43045 7.98455,10.56493 10.95442,18.64685l0.04869,0.09737c1.02241,3.16461 4.33308,5.01469 8.22798,5.74498c1.75271,0.3408 3.60279,0.43818 5.40418,0.3408l0.04869,0c1.85008,-0.09737 3.60279,-0.43818 5.25812,-0.97373c2.92118,-0.97373 5.20943,-2.53169 5.74498,-4.52783l0,-1.11978c0,-5.64761 3.35935,-11.63603 7.98455,-16.55334c5.06338,-5.35549 11.83077,-9.5912 17.52707,-10.75967c3.60279,-0.73029 7.25426,-0.77898 10.80836,-0.24343c3.70016,0.58424 7.30294,1.75271 10.71099,3.45673l0.29212,0.09737c3.45673,1.75271 6.62134,3.99228 9.39646,6.62134c2.72643,2.62906 5.06338,5.59892 6.81608,8.86091c2.77512,5.11206 4.04096,10.95442 3.16461,17.13758c-0.77898,5.40418 -0.97373,8.81222 -5.50155,14.2164l-0.04869,0.04869c-1.60665,1.89877 -2.28826,4.28439 -2.09351,6.62134c0.19475,2.23957 1.21716,4.43045 3.01855,5.98841l0.29212,0.24343c1.89877,1.55796 4.23571,2.19088 6.52396,1.99614c2.23957,-0.19475 4.43045,-1.21716 5.98841,-3.01855l0.24343,-0.3408c4.67388,-5.55024 6.18316,-9.63989 8.32536,-16.65071l0,0zm106.91511,238.27075c-0.92504,-2.28826 -1.46059,-4.77126 -1.46059,-7.40032c0,-2.62906 0.53555,-5.11206 1.46059,-7.40032c0.97373,-2.28826 2.33694,-4.38177 4.08965,-6.08579l0.09737,-0.14606c0.97373,-0.97373 2.09351,-1.89877 3.31067,-2.62906c0.63292,-0.38949 1.31453,-0.77898 2.04482,-1.11978l0,-30.72105l-37.78057,0c0.04869,-1.99614 0.04869,-3.99228 -0.04869,-6.0371c-0.09737,-1.11978 0.38949,-2.23957 1.36322,-2.87249c3.8949,-2.67775 7.449,-5.45287 10.6623,-8.32536l34.37253,0c2.38563,0 4.52783,0.97373 6.08579,2.53169c1.55796,1.55796 2.53169,3.70016 2.53169,6.08579l0,39.63065c0.58424,0.29212 1.16847,0.63292 1.75271,1.02241c1.02241,0.68161 1.99614,1.46059 2.87249,2.33694l0.14606,0.14606c1.75271,1.75271 3.2133,3.8949 4.18702,6.28053c0.92504,2.28826 1.46059,4.77126 1.46059,7.40032c0,2.53169 -0.48686,4.966 -1.4119,7.25426l-0.04869,0.14606c-0.97373,2.38563 -2.43431,4.47914 -4.18702,6.28053c-1.75271,1.75271 -3.8949,3.2133 -6.28053,4.18702c-2.28826,0.92504 -4.77126,1.46059 -7.40032,1.46059c-2.58037,0 -5.06338,-0.53555 -7.40032,-1.46059c-2.38563,-0.97373 -4.52783,-2.43431 -6.28053,-4.18702c-1.70402,-1.85008 -3.16461,-3.99228 -4.13834,-6.37791l0,0zm54.7234,-98.58976l-51.36405,0c0.87635,-1.89877 1.65533,-3.79753 2.33694,-5.74498c1.36322,-3.79753 2.33694,-7.64375 2.92118,-11.48997l46.10593,0c0.3408,-0.63292 0.68161,-1.26584 1.0711,-1.89877c0.73029,-1.16847 1.60665,-2.23957 2.53169,-3.16461c1.80139,-1.80139 3.8949,-3.2133 6.28053,-4.18702c2.28826,-0.92504 4.77126,-1.46059 7.40032,-1.46059c2.53169,0 4.966,0.48686 7.25426,1.4119l0.14606,0.04869c2.38563,0.97373 4.47914,2.43431 6.28053,4.18702c1.75271,1.75271 3.2133,3.8949 4.18702,6.28053c0.92504,2.28826 1.46059,4.77126 1.46059,7.40032c0,2.58037 -0.53555,5.06338 -1.46059,7.40032c-0.97373,2.38563 -2.43431,4.52783 -4.18702,6.28053c-1.75271,1.75271 -3.8949,3.2133 -6.28053,4.18702c-2.28826,0.92504 -4.77126,1.46059 -7.40032,1.46059c-2.53169,0 -4.966,-0.48686 -7.25426,-1.4119l-0.14606,-0.04869c-2.38563,-0.97373 -4.47914,-2.43431 -6.28053,-4.18702c-0.92504,-0.92504 -1.75271,-1.94745 -2.483,-3.06724l-0.09737,-0.14606c-0.3408,-0.58424 -0.68161,-1.21716 -1.02241,-1.85008l0,0zm16.3586,-47.12834l-64.60672,0c-1.65533,-5.45287 -3.99228,-10.75967 -6.91345,-15.82305l-0.09737,-0.14606c-0.24343,-0.43818 -0.48686,-0.82767 -0.73029,-1.26584l63.77905,0l0,-56.23268c-0.48686,-0.29212 -0.97373,-0.58424 -1.46059,-0.92504c-0.97373,-0.68161 -1.85008,-1.4119 -2.67775,-2.23957c-1.75271,-1.75271 -3.2133,-3.8949 -4.18702,-6.28053c-0.92504,-2.28826 -1.46059,-4.77126 -1.46059,-7.40032c0,-2.58037 0.53555,-5.11206 1.46059,-7.40032c0.97373,-2.38563 2.43431,-4.47914 4.18702,-6.28053c1.75271,-1.75271 3.8949,-3.2133 6.28053,-4.18702c2.28826,-0.92504 4.77126,-1.46059 7.40032,-1.46059c2.58037,0 5.06338,0.53555 7.40032,1.46059c2.38563,0.97373 4.52783,2.43431 6.28053,4.18702c1.75271,1.75271 3.2133,3.8949 4.18702,6.28053c0.92504,2.28826 1.46059,4.77126 1.46059,7.40032c0,2.53169 -0.48686,4.966 -1.4119,7.25426l-0.04869,0.14606c-0.97373,2.38563 -2.43431,4.47914 -4.18702,6.28053c-1.0711,1.0711 -2.33694,2.04482 -3.65147,2.87249c-0.73029,0.43818 -1.55796,0.87635 -2.33694,1.21716l0,63.87642c0,2.38563 -0.97373,4.52783 -2.53169,6.08579c-1.60665,1.60665 -3.74885,2.58037 -6.13447,2.58037l0,0zm-67.5279,-41.5781l-22.00621,0c0.58424,-3.2133 0.92504,-6.42659 1.0711,-9.63989c0.09737,-2.58037 0.09737,-5.11206 -0.04869,-7.59506l12.36632,0l0,-25.41425c-0.68161,-0.3408 -1.31453,-0.68161 -1.94745,-1.11978c-1.16847,-0.73029 -2.23957,-1.60665 -3.26198,-2.62906l0,0c-1.75271,-1.75271 -3.2133,-3.8949 -4.18702,-6.28053c-0.92504,-2.28826 -1.46059,-4.77126 -1.46059,-7.35163c0,-2.58037 0.53555,-5.06338 1.46059,-7.40032c0.97373,-2.28826 2.33694,-4.38177 4.04096,-6.13447l0.14606,-0.14606c1.75271,-1.75271 3.8949,-3.2133 6.28053,-4.18702c2.28826,-0.92504 4.77126,-1.46059 7.40032,-1.46059c2.62906,0 5.11206,0.53555 7.40032,1.46059c2.28826,0.97373 4.38177,2.33694 6.13447,4.08965l0.14606,0.09737c1.75271,1.75271 3.16461,3.79753 4.13834,6.13447l0.04869,0.14606c0.92504,2.28826 1.46059,4.77126 1.46059,7.40032c0,2.58037 -0.53555,5.11206 -1.46059,7.40032c-0.97373,2.28826 -2.33694,4.38177 -4.04096,6.13447l-0.14606,0.14606c-0.92504,0.92504 -1.94745,1.75271 -3.11592,2.53169c-0.58424,0.38949 -1.16847,0.73029 -1.80139,1.02241l0,34.17778c0,2.38563 -0.97373,4.52783 -2.53169,6.08579c-1.55796,1.55796 -3.74885,2.53169 -6.08579,2.53169l0,0zm-341.19359,-147.37343c2.28826,0.92504 4.77126,1.46059 7.40032,1.46059c2.62906,0 5.11206,-0.53555 7.40032,-1.46059c2.28826,-0.97373 4.38177,-2.33694 6.08579,-4.08965l0.14606,-0.09737c0.97373,-0.97373 1.89877,-2.09351 2.62906,-3.31067c0.38949,-0.63292 0.77898,-1.31453 1.11978,-2.04482l30.72105,0l0,26.53403c5.40418,-2.87249 11.24654,-4.966 17.23495,-6.18316l0,-28.96835c0,-2.38563 -0.97373,-4.52783 -2.53169,-6.08579c-1.55796,-1.55796 -3.70016,-2.53169 -6.08579,-2.53169l-39.63065,0c-0.29212,-0.58424 -0.63292,-1.16847 -1.02241,-1.75271c-0.68161,-1.02241 -1.46059,-1.99614 -2.33694,-2.87249l-0.14606,-0.14606c-1.75271,-1.75271 -3.8949,-3.2133 -6.28053,-4.18702c-2.28826,-0.92504 -4.77126,-1.46059 -7.40032,-1.46059c-2.53169,0 -5.01469,0.48686 -7.25426,1.4119l-0.14606,0.04869c-2.38563,0.97373 -4.47914,2.43431 -6.28053,4.18702c-1.75271,1.75271 -3.2133,3.8949 -4.18702,6.28053c-0.92504,2.28826 -1.46059,4.77126 -1.46059,7.40032c0,2.58037 0.53555,5.06338 1.46059,7.40032c0.97373,2.38563 2.43431,4.52783 4.18702,6.28053c1.89877,1.75271 3.99228,3.2133 6.37791,4.18702l0,0zm98.63844,-54.7234l0,66.50548c5.74498,1.65533 11.34391,4.28439 16.60203,8.08193l0.58424,0.43818c0,-0.14606 0.04869,-0.29212 0.04869,-0.43818l0,-74.58741c0.63292,-0.3408 1.26584,-0.68161 1.89877,-1.0711c1.16847,-0.73029 2.23957,-1.60665 3.16461,-2.53169c1.75271,-1.80139 3.2133,-3.8949 4.18702,-6.28053c0.92504,-2.28826 1.46059,-4.77126 1.46059,-7.40032c0,-2.53169 -0.48686,-4.966 -1.4119,-7.25426l-0.04869,-0.14606c-0.97373,-2.38563 -2.43431,-4.47914 -4.18702,-6.28053c-1.75271,-1.75271 -3.8949,-3.2133 -6.28053,-4.18702c-2.28826,-0.92504 -4.77126,-1.46059 -7.40032,-1.46059c-2.58037,0 -5.06338,0.53555 -7.40032,1.46059c-2.38563,0.97373 -4.52783,2.43431 -6.28053,4.18702c-1.75271,1.75271 -3.2133,3.8949 -4.18702,6.28053c-0.92504,2.28826 -1.46059,4.77126 -1.46059,7.40032c0,2.53169 0.48686,4.966 1.4119,7.25426l0.04869,0.14606c0.97373,2.38563 2.43431,4.47914 4.18702,6.28053c0.92504,0.92504 1.94745,1.75271 3.06724,2.483l0.09737,0.04869c0.63292,0.38949 1.21716,0.73029 1.89877,1.0711l0,0zm47.07965,-16.3586l0,97.27523c2.33694,-2.38563 4.81994,-4.47914 7.35163,-6.32922c3.16461,-2.28826 6.47528,-4.18702 9.88332,-5.64761l0,-76.72961l56.23268,0c0.29212,0.48686 0.58424,0.97373 0.92504,1.46059c0.68161,0.97373 1.4119,1.85008 2.23957,2.67775c1.75271,1.75271 3.8949,3.2133 6.28053,4.18702c2.28826,0.92504 4.77126,1.46059 7.40032,1.46059c2.58037,0 5.11206,-0.53555 7.40032,-1.46059c2.38563,-0.97373 4.52783,-2.43431 6.28053,-4.18702c1.75271,-1.75271 3.2133,-3.8949 4.18702,-6.28053c0.92504,-2.28826 1.46059,-4.77126 1.46059,-7.40032c0,-2.58037 -0.53555,-5.06338 -1.46059,-7.40032c-0.97373,-2.38563 -2.43431,-4.52783 -4.18702,-6.28053c-1.85008,-1.75271 -3.99228,-3.2133 -6.37791,-4.18702c-2.28826,-0.92504 -4.77126,-1.46059 -7.35163,-1.46059c-2.53169,0 -4.966,0.48686 -7.25426,1.4119l-0.14606,0.04869c-2.38563,0.97373 -4.47914,2.43431 -6.28053,4.18702c-1.0711,1.0711 -2.04482,2.33694 -2.87249,3.65147c-0.43818,0.73029 -0.87635,1.55796 -1.21716,2.33694l-63.87642,0c-2.38563,0 -4.52783,0.97373 -6.08579,2.53169c-1.55796,1.60665 -2.53169,3.74885 -2.53169,6.13447l0,0zm41.5781,67.5279l0,13.34005c1.75271,0.09737 3.5541,0.24343 5.30681,0.53555c4.08965,0.58424 8.08193,1.60665 11.92814,3.01855l0,-8.22798l25.41425,0c0.3408,0.68161 0.68161,1.31453 1.11978,1.94745c0.73029,1.16847 1.60665,2.23957 2.62906,3.26198l0,0c1.75271,1.75271 3.8949,3.2133 6.28053,4.18702c2.28826,0.92504 4.77126,1.46059 7.35163,1.46059s5.06338,-0.53555 7.40032,-1.46059c2.28826,-0.97373 4.38177,-2.33694 6.13447,-4.04096l0.14606,-0.14606c1.75271,-1.75271 3.2133,-3.8949 4.18702,-6.28053c0.92504,-2.28826 1.46059,-4.77126 1.46059,-7.40032c0,-2.62906 -0.53555,-5.11206 -1.46059,-7.40032c-0.97373,-2.28826 -2.33694,-4.38177 -4.08965,-6.13447l-0.09737,-0.14606c-1.75271,-1.75271 -3.79753,-3.16461 -6.13447,-4.13834l-0.14606,-0.04869c-2.28826,-0.92504 -4.77126,-1.46059 -7.40032,-1.46059c-2.58037,0 -5.11206,0.53555 -7.40032,1.46059c-2.28826,0.97373 -4.38177,2.33694 -6.13447,4.04096l-0.14606,0.14606c-0.92504,0.92504 -1.75271,1.94745 -2.53169,3.11592c-0.38949,0.58424 -0.73029,1.16847 -1.02241,1.80139l-34.17778,0c-2.38563,0 -4.52783,0.97373 -6.08579,2.53169c-1.55796,1.50928 -2.53169,3.65147 -2.53169,6.0371l0,0zm-247.47246,83.54569c0.92504,2.28826 1.46059,4.77126 1.46059,7.40032c0,2.62906 -0.53555,5.11206 -1.46059,7.40032c-0.97373,2.28826 -2.33694,4.38177 -4.08965,6.08579l-0.09737,0.14606c-0.97373,0.97373 -2.09351,1.89877 -3.31067,2.62906c-0.63292,0.38949 -1.31453,0.77898 -2.04482,1.11978l0,30.72105l31.88953,0l0,1.50928c0,1.16847 0.04869,2.38563 0.09737,3.65147c0.09737,1.0711 -0.38949,2.1422 -1.31453,2.82381c-4.18702,2.96986 -7.93587,6.08579 -11.34391,9.2504l-27.84856,0c-2.38563,0 -4.52783,-0.97373 -6.08579,-2.53169c-1.55796,-1.55796 -2.53169,-3.70016 -2.53169,-6.08579l0,-39.63065c-0.58424,-0.29212 -1.16847,-0.63292 -1.75271,-1.02241c-1.02241,-0.68161 -1.99614,-1.46059 -2.87249,-2.33694l-0.14606,-0.14606c-1.75271,-1.75271 -3.2133,-3.8949 -4.18702,-6.28053c-0.92504,-2.28826 -1.46059,-4.77126 -1.46059,-7.40032c0,-2.53169 0.48686,-4.966 1.4119,-7.25426l0.04869,-0.14606c0.97373,-2.38563 2.43431,-4.47914 4.18702,-6.28053c1.75271,-1.75271 3.8949,-3.2133 6.28053,-4.18702c2.28826,-0.92504 4.77126,-1.46059 7.40032,-1.46059c2.58037,0 5.06338,0.53555 7.40032,1.46059c2.38563,0.97373 4.52783,2.43431 6.28053,4.18702c1.65533,1.85008 3.11592,3.99228 4.08965,6.37791l0,0zm-54.7234,98.58976l45.76512,0c-0.77898,1.75271 -1.46059,3.5541 -2.09351,5.30681c-1.36322,3.94359 -2.33694,7.88718 -2.92118,11.87946l-40.75043,0c-0.3408,0.63292 -0.68161,1.26584 -1.0711,1.89877c-0.73029,1.16847 -1.60665,2.23957 -2.53169,3.16461c-1.80139,1.80139 -3.8949,3.2133 -6.28053,4.18702c-2.28826,0.92504 -4.77126,1.46059 -7.40032,1.46059c-2.53169,0 -4.966,-0.48686 -7.25426,-1.4119l-0.14606,-0.04869c-2.38563,-0.97373 -4.47914,-2.43431 -6.28053,-4.18702c-1.75271,-1.75271 -3.2133,-3.8949 -4.18702,-6.28053c-0.92504,-2.28826 -1.46059,-4.77126 -1.46059,-7.40032c0,-2.58037 0.53555,-5.06338 1.46059,-7.40032c0.97373,-2.38563 2.43431,-4.52783 4.18702,-6.28053c1.75271,-1.75271 3.8949,-3.2133 6.28053,-4.18702c2.28826,-0.92504 4.77126,-1.46059 7.40032,-1.46059c2.53169,0 4.966,0.48686 7.25426,1.4119l0.14606,0.04869c2.38563,0.97373 4.47914,2.43431 6.28053,4.18702c0.92504,0.92504 1.75271,1.94745 2.483,3.06724l0.09737,0.14606c0.3408,0.63292 0.68161,1.26584 1.02241,1.89877l0,0zm-16.3586,47.12834l59.54334,0c1.85008,5.89104 4.52783,11.58734 7.93587,16.99152l0,0.04869l0.09737,0.19475l-59.00779,0l0,56.23268c0.48686,0.29212 0.97373,0.58424 1.46059,0.92504c0.97373,0.68161 1.85008,1.4119 2.67775,2.23957c1.75271,1.75271 3.2133,3.8949 4.18702,6.28053c0.92504,2.28826 1.46059,4.77126 1.46059,7.40032c0,2.58037 -0.53555,5.11206 -1.46059,7.40032c-0.97373,2.38563 -2.43431,4.47914 -4.18702,6.28053c-1.75271,1.75271 -3.8949,3.2133 -6.28053,4.18702c-2.28826,0.92504 -4.77126,1.46059 -7.40032,1.46059c-2.58037,0 -5.06338,-0.53555 -7.40032,-1.46059c-2.38563,-0.97373 -4.52783,-2.43431 -6.28053,-4.18702c-1.75271,-1.89877 -3.2133,-4.04096 -4.18702,-6.37791c-0.92504,-2.28826 -1.46059,-4.77126 -1.46059,-7.40032c0,-2.53169 0.48686,-4.966 1.4119,-7.25426l0.04869,-0.14606c0.97373,-2.38563 2.43431,-4.47914 4.18702,-6.28053c1.0711,-1.0711 2.33694,-2.04482 3.65147,-2.87249c0.73029,-0.43818 1.55796,-0.87635 2.33694,-1.21716l0,-63.87642c0,-2.38563 0.97373,-4.52783 2.53169,-6.08579c1.60665,-1.50928 3.74885,-2.483 6.13447,-2.483l0,0zm67.5279,41.5781l16.06648,0c-0.53555,3.2133 -0.82767,6.37791 -0.92504,9.49383c-0.09737,2.62906 -0.04869,5.20943 0.14606,7.74112l-6.67002,0l0,25.41425c0.68161,0.3408 1.31453,0.68161 1.94745,1.11978c1.16847,0.73029 2.23957,1.60665 3.26198,2.62906l0,0c1.75271,1.75271 3.2133,3.8949 4.18702,6.28053c0.92504,2.28826 1.46059,4.77126 1.46059,7.40032s-0.53555,5.06338 -1.46059,7.40032c-0.97373,2.28826 -2.33694,4.38177 -4.04096,6.13447l-0.14606,0.14606c-1.75271,1.75271 -3.8949,3.2133 -6.28053,4.18702c-2.28826,0.92504 -4.77126,1.46059 -7.40032,1.46059c-2.62906,0 -5.11206,-0.53555 -7.40032,-1.46059c-2.28826,-0.97373 -4.38177,-2.33694 -6.13447,-4.08965l-0.14606,-0.09737c-1.75271,-1.75271 -3.16461,-3.79753 -4.13834,-6.13447l-0.04869,-0.14606c-0.92504,-2.28826 -1.46059,-4.77126 -1.46059,-7.40032c0,-2.58037 0.53555,-5.11206 1.46059,-7.40032c0.97373,-2.28826 2.33694,-4.38177 4.04096,-6.13447l0.14606,-0.14606c0.92504,-0.92504 1.94745,-1.75271 3.11592,-2.53169c0.58424,-0.38949 1.16847,-0.73029 1.80139,-1.02241l0,-34.17778c0,-2.38563 0.97373,-4.52783 2.53169,-6.08579c1.55796,-1.65533 3.70016,-2.58037 6.08579,-2.58037l0,0zm233.64555,202.9245l0,-68.11213c-6.08579,-1.89877 -11.83077,-4.966 -17.08889,-9.29908l-0.09737,-0.09737l0,77.55727c-0.63292,0.3408 -1.26584,0.68161 -1.89877,1.0711c-1.16847,0.73029 -2.23957,1.60665 -3.16461,2.53169c-1.75271,1.80139 -3.2133,3.8949 -4.18702,6.28053c-0.92504,2.28826 -1.46059,4.77126 -1.46059,7.40032c0,2.53169 0.48686,4.966 1.4119,7.25426l0.04869,0.14606c0.97373,2.38563 2.43431,4.47914 4.18702,6.28053c1.75271,1.75271 3.8949,3.2133 6.28053,4.18702c2.28826,0.92504 4.77126,1.46059 7.40032,1.46059c2.58037,0 5.06338,-0.53555 7.40032,-1.46059c2.38563,-0.97373 4.52783,-2.43431 6.28053,-4.18702c1.75271,-1.75271 3.2133,-3.8949 4.18702,-6.28053c0.92504,-2.28826 1.46059,-4.77126 1.46059,-7.40032c0,-2.53169 -0.48686,-4.966 -1.4119,-7.25426l-0.04869,-0.14606c-0.97373,-2.38563 -2.43431,-4.47914 -4.18702,-6.28053c-0.92504,-0.92504 -1.94745,-1.75271 -3.06724,-2.483l-0.14606,-0.09737c-0.63292,-0.38949 -1.26584,-0.73029 -1.89877,-1.0711l0,0zm-47.12834,16.3586l0,-98.15158c-2.04482,2.09351 -4.18702,3.94359 -6.42659,5.64761c-3.45673,2.62906 -7.05951,4.72257 -10.80836,6.37791l0,77.60596l-56.23268,0c-0.29212,-0.48686 -0.58424,-0.97373 -0.92504,-1.46059c-0.68161,-0.97373 -1.4119,-1.85008 -2.23957,-2.67775c-1.75271,-1.75271 -3.8949,-3.2133 -6.28053,-4.18702c-2.28826,-0.92504 -4.77126,-1.46059 -7.40032,-1.46059c-2.58037,0 -5.11206,0.53555 -7.40032,1.46059c-2.38563,0.97373 -4.47914,2.43431 -6.28053,4.18702c-1.75271,1.75271 -3.2133,3.8949 -4.18702,6.28053c-0.92504,2.28826 -1.46059,4.77126 -1.46059,7.40032c0,2.58037 0.53555,5.06338 1.46059,7.40032c0.97373,2.38563 2.43431,4.52783 4.18702,6.28053c1.75271,1.75271 3.8949,3.2133 6.28053,4.18702c2.28826,0.92504 4.77126,1.46059 7.40032,1.46059c2.53169,0 4.966,-0.48686 7.25426,-1.4119l0.14606,-0.04869c2.38563,-0.97373 4.47914,-2.43431 6.28053,-4.18702c1.0711,-1.0711 2.04482,-2.33694 2.87249,-3.65147c0.43818,-0.73029 0.87635,-1.55796 1.21716,-2.33694l63.87642,0c2.38563,0 4.52783,-0.97373 6.08579,-2.53169c1.60665,-1.65533 2.58037,-3.79753 2.58037,-6.18316l0,0zm-41.5781,-67.5279l0,-14.16771c-3.79753,-0.19475 -7.59506,-0.77898 -11.29522,-1.70402c-1.99614,-0.48686 -3.99228,-1.11978 -5.93973,-1.80139l0,9.10434l-25.41425,0c-0.3408,-0.68161 -0.68161,-1.31453 -1.11978,-1.94745c-0.73029,-1.16847 -1.60665,-2.23957 -2.62906,-3.26198l0,0c-1.75271,-1.75271 -3.8949,-3.2133 -6.28053,-4.18702c-2.28826,-0.92504 -4.77126,-1.46059 -7.35163,-1.46059c-2.58037,0 -5.06338,0.53555 -7.40032,1.46059c-2.28826,0.97373 -4.38177,2.33694 -6.13447,4.04096l-0.14606,0.09737c-1.75271,1.75271 -3.2133,3.8949 -4.18702,6.28053c-0.92504,2.28826 -1.46059,4.77126 -1.46059,7.40032c0,2.62906 0.53555,5.11206 1.46059,7.40032c0.97373,2.28826 2.33694,4.38177 4.08965,6.13447l0.09737,0.14606c1.75271,1.75271 3.79753,3.16461 6.13447,4.13834l0.14606,0.04869c2.28826,0.92504 4.77126,1.46059 7.40032,1.46059c2.58037,0 5.06338,-0.53555 7.40032,-1.46059c2.28826,-0.97373 4.38177,-2.33694 6.13447,-4.04096l0.14606,-0.14606c0.92504,-0.92504 1.75271,-1.94745 2.53169,-3.11592c0.38949,-0.58424 0.73029,-1.16847 1.02241,-1.80139l34.17778,0c2.38563,0 4.52783,-0.97373 6.08579,-2.53169c1.55796,-1.55796 2.53169,-3.70016 2.53169,-6.08579l0,0z"/>
            </g>
        </g>
    </g>
</svg>